<svg width="21" height="21" xmlns="http://www.w3.org/2000/svg">

 <g>
  <title>background</title>
  <rect fill="none" id="canvas_background" height="402" width="582" y="-1" x="-1"/>
 </g>
 <g>
  <title>Layer 1</title>
  <path transform="rotate(-180 10.5,10.5) " id="svg_1" fill="#F4F4F4" d="m10.5,0c5.7855,0 10.5,4.704 10.5,10.5c0,5.7855 -4.7145,10.5 -10.5,10.5c-5.796,0 -10.5,-4.7145 -10.5,-10.5c0,-5.796 4.704,-10.5 10.5,-10.5zm-3.087,8.4315c-0.3045,-0.315 -0.8085,-0.315 -1.113,-0.0105c-0.315,0.315 -0.315,0.8085 0,1.113l3.6435,3.6645c0.147,0.147 0.3465,0.231 0.5565,0.231c0.21,0 0.4095,-0.084 0.5565,-0.231l3.6435,-3.6645c0.1575,-0.147 0.231,-0.3465 0.231,-0.546c0,-0.21 -0.0735,-0.4095 -0.231,-0.567c-0.315,-0.3045 -0.8085,-0.3045 -1.113,0.0105l-3.087,3.0975l-3.087,-3.0975z"/>
 </g>
</svg>